<?xml version="1.0" encoding="UTF-8"?>
<svg id="Layer_2" data-name="Layer 2" xmlns="http://www.w3.org/2000/svg" viewBox="0 0 661.42 129.65">
  <defs>
    <style>
      .cls-1 {
        isolation: isolate;
      }

      .cls-2 {
        fill: #2432c1;
        stroke-width: 0px;
      }
    </style>
  </defs>
  <g id="Artboard_1" data-name="Artboard 1" class="cls-1">
    <g id="eka_Living" data-name="eka Living">
      <path class="cls-2" d="M134.02,38.3c-3.16-3.16-6.76-5.64-10.79-7.42-4.03-1.79-8.3-2.68-12.78-2.68-5.87,0-11.41,1.54-16.63,4.61-5.22,3.07-9.46,7.47-12.72,13.2-3.25,5.73-4.88,12.63-4.88,20.69,0,7.15,1.53,13.5,4.61,19.04,3.07,5.55,7.4,9.9,12.99,13.06,5.59,3.16,12.19,4.74,19.8,4.74,4.76,0,9.32-.92,13.68-2.75,4.35-1.83,7.77-3.94,10.24-6.32,2.01-1.65,3.02-3.48,3.02-5.5,0-1.56-.55-2.91-1.65-4.06-1.1-1.14-2.47-1.72-4.12-1.72-1.37,0-2.75.41-4.12,1.24-1.1.92-2.38,1.88-3.85,2.89-1.47,1.01-3.3,1.86-5.5,2.54-2.2.69-5,1.03-8.39,1.03-4.31,0-8.25-1.03-11.82-3.09-3.57-2.06-6.42-4.97-8.52-8.73-1.55-2.77-2.53-5.88-2.94-9.35h47.75c1.83,0,3.44-.59,4.81-1.79,1.37-1.19,2.11-2.7,2.2-4.54-.09-5.04-1.05-9.69-2.89-13.95-1.83-4.26-4.33-7.97-7.49-11.13ZM129.69,58.03h-39.61c.27-1.41.62-2.72,1.05-3.92,1.14-3.16,2.7-5.7,4.67-7.63,1.97-1.92,4.21-3.32,6.74-4.19,2.52-.87,5.16-1.31,7.9-1.31,3.11,0,6.09.67,8.94,1.99,2.84,1.33,5.22,3.21,7.15,5.64,1.92,2.43,2.98,5.25,3.16,8.45v.96ZM186.44,62.06l23.26-20.81c1.74-1.56,2.61-3.25,2.61-5.09,0-1.46-.64-2.93-1.92-4.4-1.28-1.46-2.8-2.2-4.54-2.2-1.92,0-3.62.73-5.09,2.2l-32.85,30.51V7.44c0-2.01-.64-3.69-1.92-5.02-1.28-1.33-2.93-1.99-4.95-1.99s-3.55.67-4.88,1.99c-1.33,1.33-1.99,3-1.99,5.02v87.7c0,2.02.66,3.69,1.99,5.02,1.33,1.33,2.96,1.99,4.88,1.99s3.66-.66,4.95-1.99c1.28-1.33,1.92-3,1.92-5.02v-16.5l7.95-7.12,26.69,28.16c1.37,1.56,3.02,2.34,4.95,2.34,1.46,0,3-.62,4.61-1.86,1.6-1.24,2.41-2.86,2.41-4.88s-.73-3.66-2.2-5.22l-25.87-27.99ZM281.6,28.75c-1.92,0-3.55.69-4.88,2.06-1.33,1.37-1.99,3.02-1.99,4.95v2.61c-.99-1.13-2.13-2.23-3.44-3.3-2.47-2.01-5.38-3.66-8.73-4.95-3.35-1.28-6.99-1.92-10.93-1.92-6.14,0-11.71,1.6-16.7,4.81-5,3.21-8.96,7.63-11.89,13.27-2.93,5.64-4.4,12.17-4.4,19.59s1.46,13.7,4.4,19.38c2.93,5.68,6.92,10.15,11.96,13.4,5.04,3.25,10.72,4.88,17.05,4.88,3.57,0,6.92-.62,10.04-1.86,3.11-1.24,5.82-2.79,8.11-4.67,1.82-1.49,3.32-3.03,4.54-4.61v2.75c0,2.02.66,3.69,1.99,5.02,1.33,1.33,2.96,1.99,4.88,1.99s3.66-.66,4.95-1.99c1.28-1.33,1.92-3,1.92-5.02v-59.39c0-2.01-.64-3.69-1.92-5.02-1.28-1.33-2.93-1.99-4.95-1.99ZM272.66,78.58c-1.83,3.8-4.4,6.8-7.7,9-3.3,2.2-7.1,3.3-11.41,3.3s-7.95-1.1-11.2-3.3c-3.25-2.2-5.82-5.2-7.7-9-1.88-3.8-2.82-8.04-2.82-12.72s.94-9.03,2.82-12.78c1.88-3.76,4.44-6.74,7.7-8.94,3.25-2.2,6.99-3.3,11.2-3.3s8.11,1.1,11.41,3.3c3.3,2.2,5.86,5.18,7.7,8.94,1.83,3.76,2.75,8.02,2.75,12.78s-.92,8.91-2.75,12.72ZM386.9,88.68h-38.77V12.94c0-2.01-.71-3.69-2.13-5.02-1.42-1.33-3.05-1.99-4.88-1.99-2.2,0-3.99.67-5.36,1.99-1.37,1.33-2.06,3-2.06,5.02v82.21c0,2.02.66,3.69,1.99,5.02,1.33,1.33,3,1.99,5.02,1.99h46.19c1.92,0,3.55-.64,4.88-1.92,1.33-1.28,1.99-2.89,1.99-4.81s-.67-3.53-1.99-4.81c-1.33-1.28-2.96-1.92-4.88-1.92ZM413.15,6.96c-1.19-.96-3.16-1.44-5.91-1.44-2.57,0-4.49.46-5.77,1.37-1.28.92-1.92,2.52-1.92,4.81v2.2c0,2.29.59,3.92,1.79,4.88,1.19.96,3.11,1.44,5.77,1.44s4.74-.46,5.98-1.37c1.24-.92,1.86-2.56,1.86-4.95v-2.2c0-2.2-.6-3.78-1.79-4.74ZM407.24,29.3c-1.92,0-3.55.67-4.88,1.99s-1.99,3-1.99,5.02v58.84c0,2.02.66,3.69,1.99,5.02,1.33,1.33,2.96,1.99,4.88,1.99s3.66-.66,4.95-1.99c1.28-1.33,1.92-3,1.92-5.02v-58.84c0-2.01-.64-3.69-1.92-5.02-1.28-1.33-2.93-1.99-4.95-1.99ZM481.06,29.3c-2.84-.09-4.9,1.37-6.19,4.4l-20.29,47.35-20.54-47.48c-.55-1.46-1.44-2.56-2.68-3.3-1.24-.73-2.54-1.1-3.92-1.1-2.11,0-3.78.69-5.02,2.06-1.24,1.37-1.86,2.75-1.86,4.12,0,.82.09,1.54.28,2.13.18.6.36,1.08.55,1.44l25.98,58.84c.73,1.56,1.76,2.73,3.09,3.51,1.33.78,2.68,1.08,4.06.89,2.75-.18,4.72-1.65,5.91-4.4l26.12-58.84c.27-.55.5-1.12.69-1.72.18-.59.27-1.17.27-1.72,0-1.83-.62-3.32-1.86-4.47-1.24-1.14-2.77-1.72-4.61-1.72ZM506.63,6.96c-1.19-.96-3.16-1.44-5.91-1.44-2.57,0-4.49.46-5.77,1.37-1.28.92-1.92,2.52-1.92,4.81v2.2c0,2.29.59,3.92,1.79,4.88,1.19.96,3.11,1.44,5.77,1.44s4.74-.46,5.98-1.37c1.24-.92,1.86-2.56,1.86-4.95v-2.2c0-2.2-.6-3.78-1.79-4.74ZM500.72,29.3c-1.92,0-3.55.67-4.88,1.99s-1.99,3-1.99,5.02v58.84c0,2.02.66,3.69,1.99,5.02,1.33,1.33,2.96,1.99,4.88,1.99s3.66-.66,4.95-1.99c1.28-1.33,1.92-3,1.92-5.02v-58.84c0-2.01-.64-3.69-1.92-5.02-1.28-1.33-2.93-1.99-4.95-1.99ZM571.65,32.25c-3.57-2.7-8.62-4.06-15.12-4.06-3.21,0-6.23.53-9.07,1.58-2.84,1.05-5.41,2.47-7.7,4.26-2.29,1.79-4.24,3.71-5.84,5.77-.32.41-.61.83-.89,1.24v-4.19c0-2.01-.67-3.69-1.99-5.02-1.33-1.33-2.96-1.99-4.88-1.99s-3.67.67-4.95,1.99c-1.28,1.33-1.92,3-1.92,5.02v58.29c0,2.02.64,3.69,1.92,5.02,1.28,1.33,2.93,1.99,4.95,1.99s3.55-.66,4.88-1.99c1.33-1.33,1.99-3,1.99-5.02v-36.7c0-3.3.8-6.25,2.41-8.87,1.6-2.61,3.83-4.72,6.67-6.32,2.84-1.6,6.14-2.41,9.9-2.41,4.03,0,7.17.8,9.42,2.41,2.24,1.6,3.83,3.71,4.74,6.32.92,2.61,1.37,5.57,1.37,8.87v36.7c0,2.02.64,3.69,1.92,5.02,1.28,1.33,2.93,1.99,4.95,1.99s3.55-.66,4.88-1.99,1.99-3,1.99-5.02v-36.84c0-5.59-.71-10.65-2.13-15.19-1.42-4.54-3.92-8.16-7.49-10.86ZM659.5,30.74c-1.28-1.33-2.93-1.99-4.95-1.99s-3.67.69-4.95,2.06c-1.28,1.37-1.92,3.02-1.92,4.95v3.84c-1.23-1.57-2.77-3.1-4.61-4.59-2.43-1.97-5.29-3.6-8.59-4.88-3.3-1.28-6.92-1.92-10.86-1.92-6.32,0-12.03,1.63-17.11,4.88-5.09,3.25-9.14,7.7-12.17,13.33-3.02,5.64-4.54,12.12-4.54,19.45s1.51,13.82,4.54,19.45c3.02,5.64,7.1,10.08,12.23,13.33,5.13,3.25,10.95,4.88,17.46,4.88,3.11,0,6.16-.53,9.14-1.58,2.98-1.05,5.61-2.41,7.9-4.06,2.29-1.65,4.15-3.46,5.57-5.43.39-.54.73-1.08,1.03-1.62v7.19c0,5.86-1.86,10.49-5.57,13.88-3.71,3.39-9.23,5.09-16.56,5.09-2.11,0-4.35-.3-6.74-.89-2.38-.6-4.54-1.26-6.46-1.99-1.92-.73-3.35-1.24-4.26-1.51-2.02-.73-3.8-.87-5.36-.41-1.56.46-2.8,1.69-3.71,3.71-.64,1.46-.62,2.93.07,4.4.69,1.46,2.08,2.75,4.19,3.85,1.01.82,2.82,1.65,5.43,2.47,2.61.82,5.48,1.53,8.59,2.13,3.11.59,5.82.89,8.11.89,6.51,0,12.49-1.15,17.94-3.44,5.45-2.29,9.83-5.89,13.13-10.79,3.3-4.9,4.95-11.25,4.95-19.04v-60.62c0-2.01-.64-3.69-1.92-5.02ZM645.47,78.72c-1.92,3.8-4.58,6.78-7.97,8.94-3.39,2.15-7.33,3.23-11.82,3.23s-8.43-1.1-11.82-3.3c-3.39-2.2-6.05-5.18-7.97-8.94-1.92-3.76-2.89-8.02-2.89-12.78s.96-9.03,2.89-12.78c1.92-3.76,4.58-6.74,7.97-8.94,3.39-2.2,7.33-3.3,11.82-3.3s8.43,1.08,11.82,3.23c3.39,2.15,6.05,5.13,7.97,8.94,1.92,3.8,2.89,8.09,2.89,12.85s-.96,9.05-2.89,12.85Z"/>
    </g>
    <g id="Shape_6" data-name="Shape 6">
      <path class="cls-2" d="M7.09,50.83c5.68.18,7.09-5.91,7.09-5.91,0,0,.35-22.12.39-25.98.04-3.86,3.15-4.72,3.15-4.72,0,0,3.15-.09,5.12-.79,3.7-1.31,3.54-4.93,3.54-6.3s-.01-3.16-1.97-5.12C21.91-.48,18.78.05,17.72.05s-1.2.03-4.33.79c-3.13.76-6.41,3.37-9.06,6.3C1.81,9.93,0,16.08,0,17.76v26.77c0,1.32,1.41,6.12,7.09,6.3ZM62.2,42.17c1.1-6.13.7-12.75.39-17.32-.3-4.58-.94-6.33-2.76-10.24s-3.12-5.5-7.09-9.45S46.59.74,45.28.44s-3.55.47-4.72,1.18c-1.18.71-2.65,1.86-3.15,5.51-.5,3.65,3.61,6.45,7.48,9.84,3.87,3.39,3.94,8.26,3.94,14.96s-.4,10.21-2.76,15.35-8.87,6.33-12.6,6.69-10.32.17-15.35,1.18-8.95,3.95-12.6,7.09c-3.65,3.14-5.12,9.65-5.12,11.81v22.83c0,1.57,1.96,6.3,7.09,6.3s7.09-5.06,7.09-5.91-.24-20.84,0-22.83c.24-2,2.78-3.87,5.12-4.72,2.33-.85,3.82-1.12,9.45-1.18,5.63-.06,9.79-.68,14.96-2.36s8-4.67,10.24-6.69c5.25-4.75,6.78-11.2,7.87-17.32ZM70.08,93.75s-7.68-18.54-9.06-21.26c-.92-1.81-1.84-2.58-2.76-3.15-.67-.41-2.19-.9-3.54-.79-1.63.14-3.52.81-5.12,2.36-1.6,1.56-2.36,4.38-1.57,6.3.78,1.92,7.55,18.41,9.06,21.65,1.56,3.36,3.37,4.38,5.91,4.33,2.75-.06,4.88-.93,6.3-3.15,1.55-2.42.79-6.3.79-6.3Z"/>
    </g>
  </g>
</svg>